<mxfile host="app.diagrams.net" modified="2021-05-28T10:13:05.237Z" agent="5.0 (Windows NT 10.0; Win64; x64) AppleWebKit/537.36 (KHTML, like Gecko) Chrome/91.0.4472.77 Safari/537.36" etag="Pj-wqwp_zuOuGwPyg4Bs" version="14.7.0" type="github">
  <diagram id="V0SGhgYBG-vyh0vYl1Hh" name="Page-1">
    <mxGraphModel dx="1040" dy="654" grid="1" gridSize="10" guides="1" tooltips="1" connect="1" arrows="1" fold="1" page="1" pageScale="1" pageWidth="827" pageHeight="1169" math="0" shadow="0">
      <root>
        <mxCell id="0" />
        <mxCell id="1" parent="0" />
        <mxCell id="0Mxv97FTWQIFy3yzlCAd-15" value="" style="rounded=0;whiteSpace=wrap;html=1;" vertex="1" parent="1">
          <mxGeometry x="112" y="10" width="680" height="660" as="geometry" />
        </mxCell>
        <mxCell id="0Mxv97FTWQIFy3yzlCAd-1" value="" style="rounded=0;whiteSpace=wrap;html=1;fillColor=#f5f5f5;strokeColor=#666666;fontColor=#333333;" vertex="1" parent="1">
          <mxGeometry x="122" y="540" width="648" height="110" as="geometry" />
        </mxCell>
        <mxCell id="0Mxv97FTWQIFy3yzlCAd-2" value="" style="rounded=0;whiteSpace=wrap;html=1;fillColor=#f5f5f5;strokeColor=#666666;fontColor=#333333;" vertex="1" parent="1">
          <mxGeometry x="120" y="360" width="650" height="120" as="geometry" />
        </mxCell>
        <mxCell id="0Mxv97FTWQIFy3yzlCAd-3" value="&lt;b&gt;Device01&lt;/b&gt;" style="rounded=1;whiteSpace=wrap;html=1;fillColor=#dae8fc;strokeColor=#6c8ebf;" vertex="1" parent="1">
          <mxGeometry x="148" y="570" width="120" height="60" as="geometry" />
        </mxCell>
        <mxCell id="0Mxv97FTWQIFy3yzlCAd-4" value="&lt;b&gt;&lt;font color=&quot;#ff4d17&quot;&gt;Device02&lt;/font&gt;&lt;/b&gt;" style="rounded=1;whiteSpace=wrap;html=1;fillColor=#dae8fc;strokeColor=#6c8ebf;" vertex="1" parent="1">
          <mxGeometry x="342" y="570" width="120" height="60" as="geometry" />
        </mxCell>
        <mxCell id="0Mxv97FTWQIFy3yzlCAd-5" value="" style="endArrow=classic;startArrow=classic;html=1;dashed=1;exitX=0.488;exitY=-0.009;exitDx=0;exitDy=0;exitPerimeter=0;" edge="1" parent="1" source="0Mxv97FTWQIFy3yzlCAd-1">
          <mxGeometry width="50" height="50" relative="1" as="geometry">
            <mxPoint x="425" y="540" as="sourcePoint" />
            <mxPoint x="438" y="481" as="targetPoint" />
          </mxGeometry>
        </mxCell>
        <mxCell id="0Mxv97FTWQIFy3yzlCAd-6" value="Device0x" style="rounded=1;whiteSpace=wrap;html=1;fillColor=#dae8fc;strokeColor=#6c8ebf;" vertex="1" parent="1">
          <mxGeometry x="528" y="570" width="120" height="60" as="geometry" />
        </mxCell>
        <mxCell id="0Mxv97FTWQIFy3yzlCAd-7" value="" style="rounded=0;whiteSpace=wrap;html=1;fillColor=#d5e8d4;strokeColor=#82b366;" vertex="1" parent="1">
          <mxGeometry x="122" y="20" width="648" height="270" as="geometry" />
        </mxCell>
        <mxCell id="0Mxv97FTWQIFy3yzlCAd-8" value="Cloud" style="outlineConnect=0;fontColor=#232F3E;gradientColor=none;strokeColor=#ffffff;fillColor=#232F3E;dashed=0;verticalLabelPosition=middle;verticalAlign=bottom;align=center;html=1;whiteSpace=wrap;fontSize=10;fontStyle=1;spacing=3;shape=mxgraph.aws4.productIcon;prIcon=mxgraph.aws4.cloud9;" vertex="1" parent="1">
          <mxGeometry x="391" y="370" width="80" height="100" as="geometry" />
        </mxCell>
        <mxCell id="0Mxv97FTWQIFy3yzlCAd-9" value="" style="endArrow=classic;startArrow=classic;html=1;dashed=1;" edge="1" parent="1">
          <mxGeometry width="50" height="50" relative="1" as="geometry">
            <mxPoint x="441" y="360" as="sourcePoint" />
            <mxPoint x="441" y="290" as="targetPoint" />
          </mxGeometry>
        </mxCell>
        <mxCell id="0Mxv97FTWQIFy3yzlCAd-12" value="&lt;b&gt;Device01&lt;/b&gt;.Humidity &amp;lt; 60" style="rhombus;whiteSpace=wrap;html=1;" vertex="1" parent="1">
          <mxGeometry x="241" y="50" width="359" height="80" as="geometry" />
        </mxCell>
        <mxCell id="0Mxv97FTWQIFy3yzlCAd-13" value="&lt;b&gt;&lt;font color=&quot;#ff3b14&quot;&gt;Device02&lt;/font&gt;&lt;/b&gt;&lt;span&gt;.Switch01 = on&lt;/span&gt;" style="shape=process;whiteSpace=wrap;html=1;backgroundOutline=1;" vertex="1" parent="1">
          <mxGeometry x="251" y="170" width="336" height="80" as="geometry" />
        </mxCell>
        <mxCell id="0Mxv97FTWQIFy3yzlCAd-14" value="" style="endArrow=classic;html=1;dashed=1;exitX=0.5;exitY=1;exitDx=0;exitDy=0;" edge="1" parent="1" source="0Mxv97FTWQIFy3yzlCAd-12" target="0Mxv97FTWQIFy3yzlCAd-13">
          <mxGeometry width="50" height="50" relative="1" as="geometry">
            <mxPoint x="640" y="130" as="sourcePoint" />
            <mxPoint x="690" y="80" as="targetPoint" />
          </mxGeometry>
        </mxCell>
      </root>
    </mxGraphModel>
  </diagram>
</mxfile>
